<svg width="169" height="58" xmlns="http://www.w3.org/2000/svg" fill="none">

 <g>
  <title>Layer 1</title>
  <path id="svg_1" fill="#8752CC" d="m28,0c-15.47,0 -28,12.6175 -28,28.1956c0,12.4765 8.015,23.0146 19.145,26.7505c1.4,0.2467 1.925,-0.5991 1.925,-1.3393c0,-0.6696 -0.035,-2.89 -0.035,-5.2514c-7.035,1.3041 -8.855,-1.727 -9.415,-3.313c-0.315,-0.8106 -1.68,-3.3129 -2.87,-3.9826c-0.98,-0.5287 -2.38,-1.8327 -0.035,-1.8679c2.205,-0.0353 3.78,2.0441 4.305,2.89c2.52,4.2646 6.545,3.0663 8.155,2.3261c0.245,-1.8327 0.98,-3.0662 1.785,-3.7711c-6.23,-0.7049 -12.74,-3.1368 -12.74,-13.9216c0,-3.0663 1.085,-5.6039 2.87,-7.5776c-0.28,-0.7048 -1.26,-3.5949 0.28,-7.4718c0,0 2.345,-0.7401 7.7,2.8901c2.24,-0.6344 4.62,-0.9516 7,-0.9516c2.38,0 4.76,0.3172 7,0.9516c5.355,-3.6655 7.7,-2.8901 7.7,-2.8901c1.54,3.8769 0.56,6.767 0.28,7.4718c1.785,1.9737 2.87,4.4761 2.87,7.5776c0,10.8201 -6.545,13.2167 -12.775,13.9216c1.015,0.8811 1.89,2.5728 1.89,5.2162c0,3.7711 -0.035,6.8021 -0.035,7.7537c0,0.7402 0.525,1.6213 1.925,1.3393c5.5585,-1.8896 10.3886,-5.4869 13.8104,-10.2856c3.4219,-4.7988 5.2631,-10.5572 5.2646,-16.4649c0,-15.5781 -12.53,-28.1956 -28,-28.1956z" clip-rule="evenodd" fill-rule="evenodd"/>
  <path id="svg_2" fill="white" d="m85.0476,27.32052l-8.7465,0c-0.2257,0 -0.4089,0.1834 -0.4089,0.409l0,4.2764c0,0.2257 0.1832,0.4093 0.4087,0.4093l3.4123,0l0,5.3132c0,0 -0.7662,0.2612 -2.8844,0.2612c-2.4991,0 -5.9902,-0.9133 -5.9902,-8.5898c0,-7.6781 3.6354,-8.6882 7.0481,-8.6882c2.954,0 4.2268,0.52 5.0364,0.7706c0.2546,0.078 0.49,-0.1753 0.49,-0.4011l0.9756,-4.13201c0,-0.10562 -0.0358,-0.23278 -0.1562,-0.31911c-0.3289,-0.23461 -2.3351,-1.35728 -7.4039,-1.35728c-5.8388,0 -11.8286,2.4842 -11.8286,14.4265c0,11.9428 6.8575,13.7224 12.6364,13.7224c4.7846,0 7.6871,-2.0447 7.6871,-2.0447c0.1198,-0.066 0.1326,-0.2332 0.1326,-0.31l0,-13.3374c0,-0.2254 -0.1828,-0.409 -0.4083,-0.409l-0.0002,0zm45.0534,-10.553c0,-0.2275 -0.181,-0.41113 -0.406,-0.41113l-4.925,0c-0.054,0.00021 -0.107,0.01102 -0.157,0.03179c-0.049,0.02078 -0.094,0.05112 -0.132,0.0893c-0.038,0.03818 -0.068,0.08344 -0.089,0.1332c-0.02,0.04977 -0.03,0.10306 -0.03,0.15684l0.001,9.5176l-7.676,0l0,-9.5174c0,-0.2275 -0.182,-0.41113 -0.407,-0.41113l-4.925,0c-0.108,0.0006 -0.212,0.04424 -0.288,0.12133c-0.077,0.0771 -0.119,0.18134 -0.119,0.2898l0,25.7709c0,0.2275 0.183,0.4123 0.407,0.4123l4.925,0c0.225,0 0.406,-0.1848 0.406,-0.4123l0,-11.0232l7.677,0l-0.014,11.023c0,0.2275 0.183,0.4123 0.408,0.4123l4.937,0c0.226,0 0.406,-0.1848 0.406,-0.4123l0,-25.7707l0.001,-0.0002zm-35.7758,3.4456c0,-1.7733 -1.4219,-3.20652 -3.1759,-3.20652c-1.7524,0 -3.1753,1.43302 -3.1753,3.20652c0,1.7713 1.4229,3.2084 3.1753,3.2084c1.754,0 3.1759,-1.4371 3.1759,-3.2084zm-0.3909,16.9024l0,-11.8958c0,-0.2258 -0.1822,-0.4105 -0.4074,-0.4105l-4.9094,0c-0.2252,0 -0.4265,0.2324 -0.4265,0.4583l0,17.0432c0,0.5009 0.312,0.6498 0.716,0.6498l4.423,0c0.4855,0 0.6043,-0.2383 0.6043,-0.658l0,-5.187zm54.9897,-12.3061l-4.888,0c-0.224,0 -0.406,0.1847 -0.406,0.412l0,12.6364c0,0 -1.242,0.9083 -3.004,0.9083c-1.762,0 -2.23,-0.7997 -2.23,-2.525l0,-11.0195c0,-0.2275 -0.182,-0.4124 -0.406,-0.4124l-4.96,0c-0.224,0 -0.408,0.1849 -0.408,0.4124l0,11.8539c0,5.1249 2.857,6.3788 6.786,6.3788c3.224,0 5.823,-1.7808 5.823,-1.7808c0,0 0.124,0.9384 0.18,1.0497c0.056,0.1111 0.202,0.223 0.359,0.223l3.156,-0.0138c0.224,0 0.407,-0.185 0.407,-0.4113l-0.002,-17.2997c0,-0.2273 -0.182,-0.412 -0.407,-0.412zm11.26,13.9665c-1.695,-0.0516 -2.845,-0.8208 -2.845,-0.8208l0,-8.1614c0,0 1.134,-0.6953 2.526,-0.8196c1.76,-0.1576 3.456,0.3739 3.456,4.5723c0,4.4271 -0.766,5.3008 -3.137,5.2293l0,0.0002zm1.927,-14.52c-2.775,0 -4.663,1.2385 -4.663,1.2385l0,-8.7269c0,-0.05369 -0.01,-0.10692 -0.03,-0.15665c-0.021,-0.04973 -0.05,-0.09499 -0.088,-0.13317c-0.038,-0.03819 -0.083,-0.06856 -0.132,-0.08938c-0.05,-0.02081 -0.103,-0.03166 -0.157,-0.03193l-4.939,0c-0.053,0.00024 -0.106,0.01107 -0.156,0.03186c-0.05,0.0208 -0.094,0.05116 -0.132,0.08934c-0.038,0.03818 -0.068,0.08344 -0.088,0.13319c-0.021,0.04974 -0.031,0.10301 -0.031,0.15674l0,25.7709c0,0.2275 0.183,0.4123 0.408,0.4123l3.427,0c0.154,0 0.271,-0.0792 0.357,-0.2187c0.085,-0.1386 0.208,-1.1883 0.208,-1.1883c0,0 2.02,1.9138 5.843,1.9138c4.488,0 7.062,-2.2766 7.062,-10.2202c0,-7.9436 -4.111,-8.9816 -6.889,-8.9816l0,0.0002zm-54.002,0.5088l-3.694,0l-0.006,-4.8805c0,-0.1846 -0.095,-0.277 -0.309,-0.277l-5.0339,0c-0.1958,0 -0.3008,0.0861 -0.3008,0.2742l0,5.0436c0,0 -2.5228,0.609 -2.6935,0.6581c-0.0851,0.0247 -0.1598,0.0764 -0.213,0.1472c-0.0532,0.0709 -0.0819,0.1571 -0.0819,0.2457l0,3.1693c0,0.2279 0.182,0.4118 0.4073,0.4118l2.5811,0l0,7.6245c0,5.6631 3.9727,6.2194 6.6527,6.2194c1.225,0 2.69,-0.3934 2.932,-0.4826c0.146,-0.0538 0.231,-0.2051 0.231,-0.3697l0.004,-3.4864c0,-0.2273 -0.192,-0.4113 -0.408,-0.4113c-0.215,0 -0.766,0.0875 -1.333,0.0875c-1.814,0 -2.429,-0.8438 -2.429,-1.9358l0,-7.2454l3.694,0c0.054,-0.0003 0.107,-0.0111 0.157,-0.0319c0.049,-0.0208 0.094,-0.0513 0.132,-0.0895c0.038,-0.0383 0.068,-0.0837 0.088,-0.1335c0.021,-0.0499 0.031,-0.1033 0.03,-0.1571l0,-3.9696c0,-0.2275 -0.182,-0.4108 -0.407,-0.4108l0,-0.0002z"/>
 </g>
</svg>