<svg width="197" height="206" xmlns="http://www.w3.org/2000/svg" fill="none">
 <g>
  <title>Layer 1</title>
  <path fill-rule="evenodd" clip-rule="evenodd" d="m97.5,0c-33.4263,0 -60.5,27.0737 -60.5,60.5c0,26.7712 17.3181,49.383 41.3669,57.399c3.025,0.53 4.1593,-1.285 4.1593,-2.873c0,-1.437 -0.0756,-6.202 -0.0756,-11.269c-15.2006,2.799 -19.1331,-3.705 -20.3431,-7.1082c-0.6806,-1.7394 -3.63,-7.1088 -6.2013,-8.5457c-2.1175,-1.1343 -5.1424,-3.9325 -0.0756,-4.0081c4.7644,-0.0756 8.1675,4.3862 9.3019,6.2012c5.445,9.1507 14.1419,6.5794 17.6206,4.9913c0.5294,-3.9325 2.1175,-6.5794 3.8569,-8.0919c-13.4612,-1.5125 -27.5275,-6.7306 -27.5275,-29.8719c0,-6.5793 2.3444,-12.0243 6.2013,-16.2593c-0.605,-1.5125 -2.7226,-7.7138 0.605,-16.0325c0,0 5.0668,-1.5881 16.6374,6.2012c4.84,-1.3612 9.9826,-2.0419 15.1251,-2.0419c5.1427,0 10.2847,0.6807 15.1247,2.0419c11.571,-7.865 16.638,-6.2012 16.638,-6.2012c3.327,8.3187 1.21,14.52 0.605,16.0325c3.857,4.235 6.201,9.6044 6.201,16.2593c0,23.2169 -14.142,28.3594 -27.603,29.8719c2.193,1.8907 4.084,5.5207 4.084,11.1925c0,8.0919 -0.076,14.5959 -0.076,16.6379c0,1.588 1.134,3.478 4.159,2.873c12.011,-4.054 22.447,-11.773 29.841,-22.0699c7.393,-10.2967 11.372,-22.6528 11.375,-35.3291c0,-33.4263 -27.074,-60.5 -60.5,-60.5z" fill="#8752CC" id="svg_1"/>
  <path d="m37.9525,171.808l-16.5583,0c-0.4272,0 -0.774,0.347 -0.774,0.774l0,8.096c0,0.427 0.3468,0.775 0.7737,0.775l6.4598,0l0,10.058c0,0 -1.4505,0.495 -5.4604,0.495c-4.731,0 -11.3401,-1.729 -11.3401,-16.262c0,-14.535 6.8821,-16.448 13.3428,-16.448c5.5923,0 8.0018,0.985 9.5346,1.459c0.4818,0.148 0.9275,-0.331 0.9275,-0.759l1.847,-7.822c0,-0.2 -0.0677,-0.441 -0.2958,-0.605c-0.6225,-0.444 -4.4206,-2.569 -14.0164,-2.569c-11.0536,0 -22.3929,4.703 -22.3929,27.311c0,22.609 12.982,25.978 23.9222,25.978c9.0578,0 14.5525,-3.871 14.5525,-3.871c0.2269,-0.125 0.2511,-0.441 0.2511,-0.586l0,-25.25c0,-0.427 -0.3461,-0.774 -0.7729,-0.774l-0.0004,0zm85.2905,-19.978c0,-0.431 -0.341,-0.778 -0.768,-0.778l-9.324,0c-0.102,0 -0.202,0.02 -0.296,0.06c-0.094,0.039 -0.179,0.096 -0.251,0.169c-0.072,0.072 -0.129,0.158 -0.167,0.252c-0.039,0.094 -0.058,0.195 -0.058,0.297l0.002,18.018l-14.5323,0l0,-18.018c0,-0.43 -0.343,-0.778 -0.7694,-0.778l-9.3236,0c-0.2053,0.001 -0.4018,0.084 -0.5462,0.23c-0.1444,0.146 -0.225,0.343 -0.224,0.548l0,48.787c0,0.431 0.3461,0.781 0.7702,0.781l9.3232,0c0.4265,0 0.7691,-0.35 0.7691,-0.781l0,-20.868l14.533,0l-0.026,20.868c0,0.431 0.347,0.781 0.773,0.781l9.345,0c0.427,0 0.769,-0.35 0.77,-0.781l0,-48.787l0,0zm-67.727,6.523c0,-3.357 -2.6918,-6.071 -6.0123,-6.071c-3.3174,0 -6.0111,2.713 -6.0111,6.071c0,3.353 2.6937,6.074 6.0111,6.074c3.3205,0 6.0123,-2.721 6.0123,-6.074zm-0.7399,31.998l0,-22.52c0,-0.428 -0.3449,-0.777 -0.7714,-0.777l-9.2939,0c-0.4265,0 -0.8075,0.44 -0.8075,0.867l0,32.265c0,0.948 0.5906,1.23 1.3555,1.23l8.3733,0c0.919,0 1.144,-0.451 1.144,-1.245l0,-9.82zm104.1009,-23.297l-9.252,0c-0.424,0 -0.77,0.35 -0.77,0.78l0,23.922c0,0 -2.35,1.72 -5.686,1.72c-3.336,0 -4.221,-1.514 -4.221,-4.78l0,-20.862c0,-0.43 -0.345,-0.78 -0.77,-0.78l-9.39,0c-0.424,0 -0.771,0.35 -0.771,0.78l0,22.441c0,9.702 5.408,12.076 12.847,12.076c6.102,0 11.023,-3.371 11.023,-3.371c0,0 0.234,1.776 0.34,1.987c0.106,0.21 0.382,0.422 0.68,0.422l5.974,-0.026c0.424,0 0.771,-0.35 0.771,-0.779l-0.003,-32.75c0,-0.43 -0.346,-0.78 -0.772,-0.78zm21.317,26.44c-3.209,-0.097 -5.386,-1.554 -5.386,-1.554l0,-15.45c0,0 2.148,-1.316 4.782,-1.552c3.332,-0.298 6.542,0.708 6.542,8.656c0,8.381 -1.448,10.035 -5.938,9.9l0,0zm3.649,-27.488c-5.254,0 -8.829,2.345 -8.829,2.345l0,-16.521c0.001,-0.102 -0.018,-0.203 -0.057,-0.297c-0.038,-0.094 -0.094,-0.18 -0.166,-0.252c-0.071,-0.072 -0.156,-0.13 -0.25,-0.169c-0.094,-0.039 -0.194,-0.06 -0.296,-0.06l-9.35,0c-0.102,0 -0.202,0.02 -0.296,0.06c-0.094,0.039 -0.179,0.097 -0.251,0.169c-0.071,0.072 -0.128,0.158 -0.166,0.252c-0.039,0.094 -0.058,0.195 -0.057,0.297l0,48.787c0,0.431 0.345,0.781 0.771,0.781l6.487,0c0.293,0 0.514,-0.15 0.677,-0.414c0.161,-0.263 0.394,-2.25 0.394,-2.25c0,0 3.823,3.623 11.061,3.623c8.496,0 13.369,-4.31 13.369,-19.348c0,-15.038 -7.782,-17.003 -13.041,-17.003l0,0zm-102.2326,0.964l-6.9936,0l-0.0108,-9.24c0,-0.349 -0.1799,-0.524 -0.5845,-0.524l-9.5304,0c-0.3707,0 -0.5695,0.163 -0.5695,0.519l0,9.548c0,0 -4.776,1.153 -5.099,1.246c-0.1611,0.047 -0.3026,0.144 -0.4033,0.278c-0.1007,0.135 -0.1551,0.298 -0.155,0.466l0,6c0,0.431 0.3445,0.779 0.771,0.779l4.8863,0l0,14.434c0,10.721 7.5201,11.774 12.5948,11.774c2.3188,0 5.0925,-0.745 5.5505,-0.913c0.2768,-0.102 0.4376,-0.389 0.4376,-0.7l0.0077,-6.601c0,-0.43 -0.3634,-0.778 -0.773,-0.778c-0.4076,0 -1.4497,0.166 -2.5233,0.166c-3.4351,0 -4.5991,-1.598 -4.5991,-3.665l-0.0004,-13.717l6.994,0c0.1019,0 0.2027,-0.021 0.2967,-0.06c0.094,-0.039 0.1792,-0.097 0.2509,-0.169c0.0716,-0.073 0.1283,-0.159 0.1667,-0.253c0.0384,-0.095 0.0578,-0.196 0.0571,-0.297l0,-7.516c0,-0.43 -0.3449,-0.777 -0.7714,-0.777l0,0z" fill="white" id="svg_2"/>
 </g>

</svg>